# xmcd
#
# Track frame offsets:
# 150
# 17077
# 35767
# 62580
# 76437
# 83060
# 105885
# 125829
# 144555
# 163617
# 188740
# 212775
#
# Disc length: 3152 seconds
#
# Revision: 0
# Processed by: cddbd v1.5.1PL0 Copyright (c) Steve Scherf et al.
# Submitted via: Audion 3.0.2 (http://www.panic.com/audion/)
#
DISCID=9e0c4e0c
DTITLE=Territoire - Territoire
DYEAR=1900
DGENRE=
TTITLE0=Nedjma
TTITLE1=Ifriquia
TTITLE2=Sahra
TTITLE3=Solitaire
TTITLE4=Touchia
TTITLE5=Ya Nar
TTITLE6=Houria
TTITLE7=Wouine
TTITLE8=Terra
TTITLE9=Sur la Route
TTITLE10=El Leil Moaide
TTITLE11=Babord
EXTD=
EXTT0=
EXTT1=
EXTT2=
EXTT3=
EXTT4=
EXTT5=
EXTT6=
EXTT7=
EXTT8=
EXTT9=
EXTT10=
EXTT11=
PLAYORDER=
